<svg xmlns="http://www.w3.org/2000/svg" version="1.1" xmlns:xlink="http://www.w3.org/1999/xlink" xmlns:svgjs="http://svgjs.com/svgjs" width="1440" height="560" preserveAspectRatio="none" viewBox="0 0 1440 560"><g mask="url(&quot;#SvgjsMask1010&quot;)" fill="none"><path d="M-55.96 376.81L-55.96 376.81" stroke="rgba(88, 125, 198, 1)" stroke-width="1.5"></path><path d="M-55.96 376.81L-102.41 520.78" stroke="rgba(88, 125, 198, 1)" stroke-width="1.5"></path><path d="M-55.96 376.81L59.82 524.61" stroke="rgba(88, 125, 198, 1)" stroke-width="1.5"></path><path d="M-55.96 376.81L205.95 383.84" stroke="rgba(88, 125, 198, 1)" stroke-width="1.5"></path><path d="M-102.41 520.78L-102.41 520.78" stroke="rgba(88, 125, 198, 1)" stroke-width="1.5"></path><path d="M-102.41 520.78L59.82 524.61" stroke="rgba(88, 125, 198, 1)" stroke-width="1.5"></path><path d="M-79.86 683.06L-79.86 683.06" stroke="rgba(88, 125, 198, 1)" stroke-width="1.5"></path><path d="M-79.86 683.06L-102.41 520.78" stroke="rgba(88, 125, 198, 1)" stroke-width="1.5"></path><path d="M-79.86 683.06L86.24 694.69" stroke="rgba(88, 125, 198, 1)" stroke-width="1.5"></path><path d="M-79.86 683.06L59.82 524.61" stroke="rgba(88, 125, 198, 1)" stroke-width="1.5"></path><path d="M59.82 524.61L59.82 524.61" stroke="rgba(88, 125, 198, 1)" stroke-width="1.5"></path><path d="M59.82 524.61L86.24 694.69" stroke="rgba(88, 125, 198, 1)" stroke-width="1.5"></path><path d="M59.82 524.61L234.84 503.04" stroke="rgba(88, 125, 198, 1)" stroke-width="1.5"></path><path d="M59.82 524.61L205.95 383.84" stroke="rgba(88, 125, 198, 1)" stroke-width="1.5"></path><path d="M86.24 694.69L86.24 694.69" stroke="rgba(88, 125, 198, 1)" stroke-width="1.5"></path><path d="M86.24 694.69L227.38 695.61" stroke="rgba(88, 125, 198, 1)" stroke-width="1.5"></path><path d="M205.95 383.84L205.95 383.84" stroke="rgba(88, 125, 198, 1)" stroke-width="1.5"></path><path d="M205.95 383.84L234.84 503.04" stroke="rgba(88, 125, 198, 1)" stroke-width="1.5"></path><path d="M205.95 383.84L390.11 387.03" stroke="rgba(88, 125, 198, 1)" stroke-width="1.5"></path><path d="M234.84 503.04L234.84 503.04" stroke="rgba(88, 125, 198, 1)" stroke-width="1.5"></path><path d="M234.84 503.04L395.73 497.8" stroke="rgba(88, 125, 198, 1)" stroke-width="1.5"></path><path d="M227.38 695.61L227.38 695.61" stroke="rgba(88, 125, 198, 1)" stroke-width="1.5"></path><path d="M227.38 695.61L366.66 680.43" stroke="rgba(88, 125, 198, 1)" stroke-width="1.5"></path><path d="M227.38 695.61L234.84 503.04" stroke="rgba(88, 125, 198, 1)" stroke-width="1.5"></path><path d="M227.38 695.61L59.82 524.61" stroke="rgba(88, 125, 198, 1)" stroke-width="1.5"></path><path d="M227.38 695.61L395.73 497.8" stroke="rgba(88, 125, 198, 1)" stroke-width="1.5"></path><path d="M390.11 387.03L390.11 387.03" stroke="rgba(88, 125, 198, 1)" stroke-width="1.5"></path><path d="M390.11 387.03L488.15 405.04" stroke="rgba(88, 125, 198, 1)" stroke-width="1.5"></path><path d="M390.11 387.03L395.73 497.8" stroke="rgba(88, 125, 198, 1)" stroke-width="1.5"></path><path d="M390.11 387.03L234.84 503.04" stroke="rgba(88, 125, 198, 1)" stroke-width="1.5"></path><path d="M390.11 387.03L552.91 503.71" stroke="rgba(88, 125, 198, 1)" stroke-width="1.5"></path><path d="M390.11 387.03L647.56 382.36" stroke="rgba(88, 125, 198, 1)" stroke-width="1.5"></path><path d="M395.73 497.8L395.73 497.8" stroke="rgba(88, 125, 198, 1)" stroke-width="1.5"></path><path d="M395.73 497.8L488.15 405.04" stroke="rgba(88, 125, 198, 1)" stroke-width="1.5"></path><path d="M395.73 497.8L552.91 503.71" stroke="rgba(88, 125, 198, 1)" stroke-width="1.5"></path><path d="M366.66 680.43L366.66 680.43" stroke="rgba(88, 125, 198, 1)" stroke-width="1.5"></path><path d="M366.66 680.43L529.74 646.94" stroke="rgba(88, 125, 198, 1)" stroke-width="1.5"></path><path d="M366.66 680.43L395.73 497.8" stroke="rgba(88, 125, 198, 1)" stroke-width="1.5"></path><path d="M366.66 680.43L234.84 503.04" stroke="rgba(88, 125, 198, 1)" stroke-width="1.5"></path><path d="M366.66 680.43L552.91 503.71" stroke="rgba(88, 125, 198, 1)" stroke-width="1.5"></path><path d="M366.66 680.43L86.24 694.69" stroke="rgba(88, 125, 198, 1)" stroke-width="1.5"></path><path d="M488.15 405.04L488.15 405.04" stroke="rgba(88, 125, 198, 1)" stroke-width="1.5"></path><path d="M488.15 405.04L552.91 503.71" stroke="rgba(88, 125, 198, 1)" stroke-width="1.5"></path><path d="M552.91 503.71L552.91 503.71" stroke="rgba(88, 125, 198, 1)" stroke-width="1.5"></path><path d="M552.91 503.71L656.09 548.24" stroke="rgba(88, 125, 198, 1)" stroke-width="1.5"></path><path d="M552.91 503.71L529.74 646.94" stroke="rgba(88, 125, 198, 1)" stroke-width="1.5"></path><path d="M552.91 503.71L647.56 382.36" stroke="rgba(88, 125, 198, 1)" stroke-width="1.5"></path><path d="M552.91 503.71L670.66 643.53" stroke="rgba(88, 125, 198, 1)" stroke-width="1.5"></path><path d="M529.74 646.94L529.74 646.94" stroke="rgba(88, 125, 198, 1)" stroke-width="1.5"></path><path d="M529.74 646.94L670.66 643.53" stroke="rgba(88, 125, 198, 1)" stroke-width="1.5"></path><path d="M529.74 646.94L656.09 548.24" stroke="rgba(88, 125, 198, 1)" stroke-width="1.5"></path><path d="M690.72 245.36L690.72 245.36" stroke="rgba(88, 125, 198, 1)" stroke-width="1.5"></path><path d="M690.72 245.36L815.13 201.71" stroke="rgba(88, 125, 198, 1)" stroke-width="1.5"></path><path d="M690.72 245.36L647.56 382.36" stroke="rgba(88, 125, 198, 1)" stroke-width="1.5"></path><path d="M647.56 382.36L647.56 382.36" stroke="rgba(88, 125, 198, 1)" stroke-width="1.5"></path><path d="M647.56 382.36L488.15 405.04" stroke="rgba(88, 125, 198, 1)" stroke-width="1.5"></path><path d="M656.09 548.24L656.09 548.24" stroke="rgba(88, 125, 198, 1)" stroke-width="1.5"></path><path d="M656.09 548.24L670.66 643.53" stroke="rgba(88, 125, 198, 1)" stroke-width="1.5"></path><path d="M656.09 548.24L647.56 382.36" stroke="rgba(88, 125, 198, 1)" stroke-width="1.5"></path><path d="M670.66 643.53L670.66 643.53" stroke="rgba(88, 125, 198, 1)" stroke-width="1.5"></path><path d="M670.66 643.53L834.97 639.37" stroke="rgba(88, 125, 198, 1)" stroke-width="1.5"></path><path d="M815.13 201.71L815.13 201.71" stroke="rgba(88, 125, 198, 1)" stroke-width="1.5"></path><path d="M815.13 201.71L944.86 214.27" stroke="rgba(88, 125, 198, 1)" stroke-width="1.5"></path><path d="M815.13 201.71L838.59 400.09" stroke="rgba(88, 125, 198, 1)" stroke-width="1.5"></path><path d="M838.59 400.09L838.59 400.09" stroke="rgba(88, 125, 198, 1)" stroke-width="1.5"></path><path d="M838.59 400.09L825.16 489.29" stroke="rgba(88, 125, 198, 1)" stroke-width="1.5"></path><path d="M838.59 400.09L1006.28 487.66" stroke="rgba(88, 125, 198, 1)" stroke-width="1.5"></path><path d="M838.59 400.09L647.56 382.36" stroke="rgba(88, 125, 198, 1)" stroke-width="1.5"></path><path d="M825.16 489.29L825.16 489.29" stroke="rgba(88, 125, 198, 1)" stroke-width="1.5"></path><path d="M825.16 489.29L834.97 639.37" stroke="rgba(88, 125, 198, 1)" stroke-width="1.5"></path><path d="M834.97 639.37L834.97 639.37" stroke="rgba(88, 125, 198, 1)" stroke-width="1.5"></path><path d="M834.97 639.37L963.98 683.33" stroke="rgba(88, 125, 198, 1)" stroke-width="1.5"></path><path d="M834.97 639.37L656.09 548.24" stroke="rgba(88, 125, 198, 1)" stroke-width="1.5"></path><path d="M979.3 -103.95L979.3 -103.95" stroke="rgba(88, 125, 198, 1)" stroke-width="1.5"></path><path d="M979.3 -103.95L1102.21 -74.75" stroke="rgba(88, 125, 198, 1)" stroke-width="1.5"></path><path d="M979.3 -103.95L955.84 39.14" stroke="rgba(88, 125, 198, 1)" stroke-width="1.5"></path><path d="M955.84 39.14L955.84 39.14" stroke="rgba(88, 125, 198, 1)" stroke-width="1.5"></path><path d="M955.84 39.14L1095.87 58.57" stroke="rgba(88, 125, 198, 1)" stroke-width="1.5"></path><path d="M955.84 39.14L944.86 214.27" stroke="rgba(88, 125, 198, 1)" stroke-width="1.5"></path><path d="M955.84 39.14L1102.21 -74.75" stroke="rgba(88, 125, 198, 1)" stroke-width="1.5"></path><path d="M955.84 39.14L815.13 201.71" stroke="rgba(88, 125, 198, 1)" stroke-width="1.5"></path><path d="M955.84 39.14L1160.3 209.04" stroke="rgba(88, 125, 198, 1)" stroke-width="1.5"></path><path d="M944.86 214.27L944.86 214.27" stroke="rgba(88, 125, 198, 1)" stroke-width="1.5"></path><path d="M944.86 214.27L838.59 400.09" stroke="rgba(88, 125, 198, 1)" stroke-width="1.5"></path><path d="M944.86 214.27L1160.3 209.04" stroke="rgba(88, 125, 198, 1)" stroke-width="1.5"></path><path d="M944.86 214.27L1095.87 58.57" stroke="rgba(88, 125, 198, 1)" stroke-width="1.5"></path><path d="M1006.28 487.66L1006.28 487.66" stroke="rgba(88, 125, 198, 1)" stroke-width="1.5"></path><path d="M1006.28 487.66L1102.09 380.61" stroke="rgba(88, 125, 198, 1)" stroke-width="1.5"></path><path d="M1006.28 487.66L1142.16 543.28" stroke="rgba(88, 125, 198, 1)" stroke-width="1.5"></path><path d="M1006.28 487.66L1089.03 647.07" stroke="rgba(88, 125, 198, 1)" stroke-width="1.5"></path><path d="M1006.28 487.66L825.16 489.29" stroke="rgba(88, 125, 198, 1)" stroke-width="1.5"></path><path d="M1006.28 487.66L963.98 683.33" stroke="rgba(88, 125, 198, 1)" stroke-width="1.5"></path><path d="M963.98 683.33L963.98 683.33" stroke="rgba(88, 125, 198, 1)" stroke-width="1.5"></path><path d="M963.98 683.33L1089.03 647.07" stroke="rgba(88, 125, 198, 1)" stroke-width="1.5"></path><path d="M1102.21 -74.75L1102.21 -74.75" stroke="rgba(88, 125, 198, 1)" stroke-width="1.5"></path><path d="M1102.21 -74.75L1095.87 58.57" stroke="rgba(88, 125, 198, 1)" stroke-width="1.5"></path><path d="M1102.21 -74.75L1284.66 -74.28" stroke="rgba(88, 125, 198, 1)" stroke-width="1.5"></path><path d="M1095.87 58.57L1095.87 58.57" stroke="rgba(88, 125, 198, 1)" stroke-width="1.5"></path><path d="M1095.87 58.57L1160.3 209.04" stroke="rgba(88, 125, 198, 1)" stroke-width="1.5"></path><path d="M1095.87 58.57L979.3 -103.95" stroke="rgba(88, 125, 198, 1)" stroke-width="1.5"></path><path d="M1095.87 58.57L1284.66 -74.28" stroke="rgba(88, 125, 198, 1)" stroke-width="1.5"></path><path d="M1160.3 209.04L1160.3 209.04" stroke="rgba(88, 125, 198, 1)" stroke-width="1.5"></path><path d="M1160.3 209.04L1289.59 239.49" stroke="rgba(88, 125, 198, 1)" stroke-width="1.5"></path><path d="M1102.09 380.61L1102.09 380.61" stroke="rgba(88, 125, 198, 1)" stroke-width="1.5"></path><path d="M1102.09 380.61L1264.88 364.52" stroke="rgba(88, 125, 198, 1)" stroke-width="1.5"></path><path d="M1102.09 380.61L1142.16 543.28" stroke="rgba(88, 125, 198, 1)" stroke-width="1.5"></path><path d="M1102.09 380.61L1160.3 209.04" stroke="rgba(88, 125, 198, 1)" stroke-width="1.5"></path><path d="M1102.09 380.61L1265.94 506.69" stroke="rgba(88, 125, 198, 1)" stroke-width="1.5"></path><path d="M1102.09 380.61L944.86 214.27" stroke="rgba(88, 125, 198, 1)" stroke-width="1.5"></path><path d="M1142.16 543.28L1142.16 543.28" stroke="rgba(88, 125, 198, 1)" stroke-width="1.5"></path><path d="M1142.16 543.28L1089.03 647.07" stroke="rgba(88, 125, 198, 1)" stroke-width="1.5"></path><path d="M1142.16 543.28L1265.94 506.69" stroke="rgba(88, 125, 198, 1)" stroke-width="1.5"></path><path d="M1089.03 647.07L1089.03 647.07" stroke="rgba(88, 125, 198, 1)" stroke-width="1.5"></path><path d="M1284.66 -74.28L1284.66 -74.28" stroke="rgba(88, 125, 198, 1)" stroke-width="1.5"></path><path d="M1284.66 -74.28L1421.64 -54.09" stroke="rgba(88, 125, 198, 1)" stroke-width="1.5"></path><path d="M1284.66 -74.28L1441.33 49.62" stroke="rgba(88, 125, 198, 1)" stroke-width="1.5"></path><path d="M1284.66 -74.28L979.3 -103.95" stroke="rgba(88, 125, 198, 1)" stroke-width="1.5"></path><path d="M1284.66 -74.28L1160.3 209.04" stroke="rgba(88, 125, 198, 1)" stroke-width="1.5"></path><path d="M1289.59 239.49L1289.59 239.49" stroke="rgba(88, 125, 198, 1)" stroke-width="1.5"></path><path d="M1289.59 239.49L1399.21 241.83" stroke="rgba(88, 125, 198, 1)" stroke-width="1.5"></path><path d="M1289.59 239.49L1264.88 364.52" stroke="rgba(88, 125, 198, 1)" stroke-width="1.5"></path><path d="M1289.59 239.49L1393.77 370.17" stroke="rgba(88, 125, 198, 1)" stroke-width="1.5"></path><path d="M1289.59 239.49L1102.09 380.61" stroke="rgba(88, 125, 198, 1)" stroke-width="1.5"></path><path d="M1289.59 239.49L1441.33 49.62" stroke="rgba(88, 125, 198, 1)" stroke-width="1.5"></path><path d="M1264.88 364.52L1264.88 364.52" stroke="rgba(88, 125, 198, 1)" stroke-width="1.5"></path><path d="M1264.88 364.52L1393.77 370.17" stroke="rgba(88, 125, 198, 1)" stroke-width="1.5"></path><path d="M1264.88 364.52L1265.94 506.69" stroke="rgba(88, 125, 198, 1)" stroke-width="1.5"></path><path d="M1265.94 506.69L1265.94 506.69" stroke="rgba(88, 125, 198, 1)" stroke-width="1.5"></path><path d="M1265.94 506.69L1406.53 523.8" stroke="rgba(88, 125, 198, 1)" stroke-width="1.5"></path><path d="M1265.94 506.69L1393.77 370.17" stroke="rgba(88, 125, 198, 1)" stroke-width="1.5"></path><path d="M1265.94 506.69L1300.71 693.16" stroke="rgba(88, 125, 198, 1)" stroke-width="1.5"></path><path d="M1300.71 693.16L1300.71 693.16" stroke="rgba(88, 125, 198, 1)" stroke-width="1.5"></path><path d="M1300.71 693.16L1403.47 705.99" stroke="rgba(88, 125, 198, 1)" stroke-width="1.5"></path><path d="M1300.71 693.16L1406.53 523.8" stroke="rgba(88, 125, 198, 1)" stroke-width="1.5"></path><path d="M1421.64 -54.09L1421.64 -54.09" stroke="rgba(88, 125, 198, 1)" stroke-width="1.5"></path><path d="M1421.64 -54.09L1441.33 49.62" stroke="rgba(88, 125, 198, 1)" stroke-width="1.5"></path><path d="M1421.64 -54.09L1595.32 -91.43" stroke="rgba(88, 125, 198, 1)" stroke-width="1.5"></path><path d="M1421.64 -54.09L1557.82 105.03" stroke="rgba(88, 125, 198, 1)" stroke-width="1.5"></path><path d="M1421.64 -54.09L1399.21 241.83" stroke="rgba(88, 125, 198, 1)" stroke-width="1.5"></path><path d="M1441.33 49.62L1441.33 49.62" stroke="rgba(88, 125, 198, 1)" stroke-width="1.5"></path><path d="M1441.33 49.62L1557.82 105.03" stroke="rgba(88, 125, 198, 1)" stroke-width="1.5"></path><path d="M1441.33 49.62L1399.21 241.83" stroke="rgba(88, 125, 198, 1)" stroke-width="1.5"></path><path d="M1399.21 241.83L1399.21 241.83" stroke="rgba(88, 125, 198, 1)" stroke-width="1.5"></path><path d="M1393.77 370.17L1393.77 370.17" stroke="rgba(88, 125, 198, 1)" stroke-width="1.5"></path><path d="M1393.77 370.17L1399.21 241.83" stroke="rgba(88, 125, 198, 1)" stroke-width="1.5"></path><path d="M1406.53 523.8L1406.53 523.8" stroke="rgba(88, 125, 198, 1)" stroke-width="1.5"></path><path d="M1406.53 523.8L1393.77 370.17" stroke="rgba(88, 125, 198, 1)" stroke-width="1.5"></path><path d="M1403.47 705.99L1403.47 705.99" stroke="rgba(88, 125, 198, 1)" stroke-width="1.5"></path><path d="M1403.47 705.99L1406.53 523.8" stroke="rgba(88, 125, 198, 1)" stroke-width="1.5"></path><path d="M1595.32 -91.43L1595.32 -91.43" stroke="rgba(88, 125, 198, 1)" stroke-width="1.5"></path><path d="M1595.32 -91.43L1557.82 105.03" stroke="rgba(88, 125, 198, 1)" stroke-width="1.5"></path><path d="M1557.82 105.03L1557.82 105.03" stroke="rgba(88, 125, 198, 1)" stroke-width="1.5"></path><path d="M1557.82 105.03L1561.07 236.66" stroke="rgba(88, 125, 198, 1)" stroke-width="1.5"></path><path d="M1561.07 236.66L1561.07 236.66" stroke="rgba(88, 125, 198, 1)" stroke-width="1.5"></path><path d="M1561.07 236.66L1565.47 374.93" stroke="rgba(88, 125, 198, 1)" stroke-width="1.5"></path><path d="M1561.07 236.66L1399.21 241.83" stroke="rgba(88, 125, 198, 1)" stroke-width="1.5"></path><path d="M1561.07 236.66L1393.77 370.17" stroke="rgba(88, 125, 198, 1)" stroke-width="1.5"></path><path d="M1561.07 236.66L1441.33 49.62" stroke="rgba(88, 125, 198, 1)" stroke-width="1.5"></path><path d="M1565.47 374.93L1565.47 374.93" stroke="rgba(88, 125, 198, 1)" stroke-width="1.5"></path><path d="M1565.47 374.93L1393.77 370.17" stroke="rgba(88, 125, 198, 1)" stroke-width="1.5"></path><path d="M1565.47 374.93L1399.21 241.83" stroke="rgba(88, 125, 198, 1)" stroke-width="1.5"></path><path d="M1565.47 374.93L1406.53 523.8" stroke="rgba(88, 125, 198, 1)" stroke-width="1.5"></path><path d="M1565.47 374.93L1557.82 105.03" stroke="rgba(88, 125, 198, 1)" stroke-width="1.5"></path><path d="M1565.47 374.93L1575.87 646.87" stroke="rgba(88, 125, 198, 1)" stroke-width="1.5"></path><path d="M1575.87 646.87L1575.87 646.87" stroke="rgba(88, 125, 198, 1)" stroke-width="1.5"></path><path d="M1575.87 646.87L1403.47 705.99" stroke="rgba(88, 125, 198, 1)" stroke-width="1.5"></path><path d="M1575.87 646.87L1406.53 523.8" stroke="rgba(88, 125, 198, 1)" stroke-width="1.5"></path><circle r="5" cx="-55.96" cy="376.81" fill="rgba(88, 125, 198, 1)"></circle><circle r="5" cx="-102.41" cy="520.78" fill="rgba(88, 125, 198, 1)"></circle><circle r="5" cx="-79.86" cy="683.06" fill="rgba(88, 125, 198, 1)"></circle><circle r="5" cx="59.82" cy="524.61" fill="rgba(88, 125, 198, 1)"></circle><circle r="5" cx="86.24" cy="694.69" fill="rgba(88, 125, 198, 1)"></circle><circle r="5" cx="205.95" cy="383.84" fill="rgba(88, 125, 198, 1)"></circle><circle r="5" cx="234.84" cy="503.04" fill="rgba(88, 125, 198, 1)"></circle><circle r="5" cx="227.38" cy="695.61" fill="rgba(88, 125, 198, 1)"></circle><circle r="5" cx="390.11" cy="387.03" fill="rgba(88, 125, 198, 1)"></circle><circle r="5" cx="395.73" cy="497.8" fill="rgba(88, 125, 198, 1)"></circle><circle r="5" cx="366.66" cy="680.43" fill="rgba(88, 125, 198, 1)"></circle><circle r="5" cx="488.15" cy="405.04" fill="rgba(88, 125, 198, 1)"></circle><circle r="5" cx="552.91" cy="503.71" fill="rgba(88, 125, 198, 1)"></circle><circle r="5" cx="529.74" cy="646.94" fill="rgba(88, 125, 198, 1)"></circle><circle r="5" cx="690.72" cy="245.36" fill="rgba(88, 125, 198, 1)"></circle><circle r="5" cx="647.56" cy="382.36" fill="rgba(88, 125, 198, 1)"></circle><circle r="5" cx="656.09" cy="548.24" fill="rgba(88, 125, 198, 1)"></circle><circle r="5" cx="670.66" cy="643.53" fill="rgba(88, 125, 198, 1)"></circle><circle r="5" cx="815.13" cy="201.71" fill="rgba(88, 125, 198, 1)"></circle><circle r="5" cx="838.59" cy="400.09" fill="rgba(88, 125, 198, 1)"></circle><circle r="5" cx="825.16" cy="489.29" fill="rgba(88, 125, 198, 1)"></circle><circle r="5" cx="834.97" cy="639.37" fill="rgba(88, 125, 198, 1)"></circle><circle r="5" cx="979.3" cy="-103.95" fill="rgba(88, 125, 198, 1)"></circle><circle r="5" cx="955.84" cy="39.14" fill="rgba(88, 125, 198, 1)"></circle><circle r="5" cx="944.86" cy="214.27" fill="rgba(88, 125, 198, 1)"></circle><circle r="5" cx="1006.28" cy="487.66" fill="rgba(88, 125, 198, 1)"></circle><circle r="5" cx="963.98" cy="683.33" fill="rgba(88, 125, 198, 1)"></circle><circle r="5" cx="1102.21" cy="-74.75" fill="rgba(88, 125, 198, 1)"></circle><circle r="5" cx="1095.87" cy="58.57" fill="rgba(88, 125, 198, 1)"></circle><circle r="5" cx="1160.3" cy="209.04" fill="rgba(88, 125, 198, 1)"></circle><circle r="5" cx="1102.09" cy="380.61" fill="rgba(88, 125, 198, 1)"></circle><circle r="5" cx="1142.16" cy="543.28" fill="rgba(88, 125, 198, 1)"></circle><circle r="5" cx="1089.03" cy="647.07" fill="rgba(88, 125, 198, 1)"></circle><circle r="5" cx="1284.66" cy="-74.28" fill="rgba(88, 125, 198, 1)"></circle><circle r="5" cx="1289.59" cy="239.49" fill="rgba(88, 125, 198, 1)"></circle><circle r="5" cx="1264.88" cy="364.52" fill="rgba(88, 125, 198, 1)"></circle><circle r="5" cx="1265.94" cy="506.69" fill="rgba(88, 125, 198, 1)"></circle><circle r="5" cx="1300.71" cy="693.16" fill="rgba(88, 125, 198, 1)"></circle><circle r="5" cx="1421.64" cy="-54.09" fill="rgba(88, 125, 198, 1)"></circle><circle r="5" cx="1441.33" cy="49.62" fill="rgba(88, 125, 198, 1)"></circle><circle r="5" cx="1399.21" cy="241.83" fill="rgba(88, 125, 198, 1)"></circle><circle r="5" cx="1393.77" cy="370.17" fill="rgba(88, 125, 198, 1)"></circle><circle r="5" cx="1406.53" cy="523.8" fill="rgba(88, 125, 198, 1)"></circle><circle r="5" cx="1403.47" cy="705.99" fill="rgba(88, 125, 198, 1)"></circle><circle r="5" cx="1595.32" cy="-91.43" fill="rgba(88, 125, 198, 1)"></circle><circle r="5" cx="1557.82" cy="105.03" fill="rgba(88, 125, 198, 1)"></circle><circle r="5" cx="1561.07" cy="236.66" fill="rgba(88, 125, 198, 1)"></circle><circle r="5" cx="1565.47" cy="374.93" fill="rgba(88, 125, 198, 1)"></circle><circle r="5" cx="1575.87" cy="646.87" fill="rgba(88, 125, 198, 1)"></circle><path d="M687.83 387.97L687.83 387.97" stroke="hsl(186.29999999999995, 89.3%, 57.4%)" stroke-width="1.5"></path><path d="M687.83 387.97L664.25 512.06" stroke="hsl(186.29999999999995, 89.3%, 57.4%)" stroke-width="1.5"></path><path d="M687.83 387.97L558.12 406.85" stroke="hsl(186.29999999999995, 89.3%, 57.4%)" stroke-width="1.5"></path><path d="M687.83 387.97L829 343.65" stroke="hsl(186.29999999999995, 89.3%, 57.4%)" stroke-width="1.5"></path><path d="M687.83 387.97L552.81 499.04" stroke="hsl(186.29999999999995, 89.3%, 57.4%)" stroke-width="1.5"></path><path d="M687.83 387.97L841.77 496.38" stroke="hsl(186.29999999999995, 89.3%, 57.4%)" stroke-width="1.5"></path><path d="M829 343.65L829 343.65" stroke="hsl(186.29999999999995, 89.3%, 57.4%)" stroke-width="1.5"></path><path d="M829 343.65L940.43 383.29" stroke="hsl(186.29999999999995, 89.3%, 57.4%)" stroke-width="1.5"></path><path d="M1001.99 226.04L1001.99 226.04" stroke="hsl(186.29999999999995, 89.3%, 57.4%)" stroke-width="1.5"></path><path d="M1001.99 226.04L1155.69 240.01" stroke="hsl(186.29999999999995, 89.3%, 57.4%)" stroke-width="1.5"></path><path d="M1001.99 226.04L940.43 383.29" stroke="hsl(186.29999999999995, 89.3%, 57.4%)" stroke-width="1.5"></path><path d="M1001.99 226.04L1121.6 369.15" stroke="hsl(186.29999999999995, 89.3%, 57.4%)" stroke-width="1.5"></path><path d="M940.43 383.29L940.43 383.29" stroke="hsl(186.29999999999995, 89.3%, 57.4%)" stroke-width="1.5"></path><path d="M940.43 383.29L978.18 505.03" stroke="hsl(186.29999999999995, 89.3%, 57.4%)" stroke-width="1.5"></path><path d="M940.43 383.29L841.77 496.38" stroke="hsl(186.29999999999995, 89.3%, 57.4%)" stroke-width="1.5"></path><path d="M940.43 383.29L1121.6 369.15" stroke="hsl(186.29999999999995, 89.3%, 57.4%)" stroke-width="1.5"></path><path d="M940.43 383.29L1090.79 550.11" stroke="hsl(186.29999999999995, 89.3%, 57.4%)" stroke-width="1.5"></path><path d="M978.18 505.03L978.18 505.03" stroke="hsl(186.29999999999995, 89.3%, 57.4%)" stroke-width="1.5"></path><path d="M978.18 505.03L1090.79 550.11" stroke="hsl(186.29999999999995, 89.3%, 57.4%)" stroke-width="1.5"></path><path d="M978.18 505.03L841.77 496.38" stroke="hsl(186.29999999999995, 89.3%, 57.4%)" stroke-width="1.5"></path><path d="M978.18 505.03L990.02 686.65" stroke="hsl(186.29999999999995, 89.3%, 57.4%)" stroke-width="1.5"></path><path d="M1143.66 669.02L1143.66 669.02" stroke="hsl(186.29999999999995, 89.3%, 57.4%)" stroke-width="1.5"></path><path d="M1143.66 669.02L1090.79 550.11" stroke="hsl(186.29999999999995, 89.3%, 57.4%)" stroke-width="1.5"></path><path d="M1143.66 669.02L1279.28 702.36" stroke="hsl(186.29999999999995, 89.3%, 57.4%)" stroke-width="1.5"></path><path d="M1143.66 669.02L990.02 686.65" stroke="hsl(186.29999999999995, 89.3%, 57.4%)" stroke-width="1.5"></path><path d="M1143.66 669.02L1242.83 543.82" stroke="hsl(186.29999999999995, 89.3%, 57.4%)" stroke-width="1.5"></path><path d="M1242.83 543.82L1242.83 543.82" stroke="hsl(186.29999999999995, 89.3%, 57.4%)" stroke-width="1.5"></path><path d="M1242.83 543.82L1090.79 550.11" stroke="hsl(186.29999999999995, 89.3%, 57.4%)" stroke-width="1.5"></path><path d="M1242.83 543.82L1279.28 702.36" stroke="hsl(186.29999999999995, 89.3%, 57.4%)" stroke-width="1.5"></path><path d="M1242.83 543.82L1397.36 638.17" stroke="hsl(186.29999999999995, 89.3%, 57.4%)" stroke-width="1.5"></path><path d="M1242.83 543.82L1418.43 496.34" stroke="hsl(186.29999999999995, 89.3%, 57.4%)" stroke-width="1.5"></path><path d="M1418.43 496.34L1418.43 496.34" stroke="hsl(186.29999999999995, 89.3%, 57.4%)" stroke-width="1.5"></path><path d="M1418.43 496.34L1417.12 372.25" stroke="hsl(186.29999999999995, 89.3%, 57.4%)" stroke-width="1.5"></path><path d="M1418.43 496.34L1397.36 638.17" stroke="hsl(186.29999999999995, 89.3%, 57.4%)" stroke-width="1.5"></path><path d="M1418.43 496.34L1567.17 544.07" stroke="hsl(186.29999999999995, 89.3%, 57.4%)" stroke-width="1.5"></path><path d="M1418.43 496.34L1559.23 386.86" stroke="hsl(186.29999999999995, 89.3%, 57.4%)" stroke-width="1.5"></path><path d="M1418.43 496.34L1281.61 352.03" stroke="hsl(186.29999999999995, 89.3%, 57.4%)" stroke-width="1.5"></path><path d="M1397.36 638.17L1397.36 638.17" stroke="hsl(186.29999999999995, 89.3%, 57.4%)" stroke-width="1.5"></path><path d="M1397.36 638.17L1279.28 702.36" stroke="hsl(186.29999999999995, 89.3%, 57.4%)" stroke-width="1.5"></path><path d="M1541.7 -84.51L1541.7 -84.51" stroke="hsl(186.29999999999995, 89.3%, 57.4%)" stroke-width="1.5"></path><path d="M1541.7 -84.51L1408.77 -82.71" stroke="hsl(186.29999999999995, 89.3%, 57.4%)" stroke-width="1.5"></path><path d="M1541.7 -84.51L1545.48 52.96" stroke="hsl(186.29999999999995, 89.3%, 57.4%)" stroke-width="1.5"></path><path d="M1541.7 -84.51L1287.39 -93.5" stroke="hsl(186.29999999999995, 89.3%, 57.4%)" stroke-width="1.5"></path><path d="M1567.17 544.07L1567.17 544.07" stroke="hsl(186.29999999999995, 89.3%, 57.4%)" stroke-width="1.5"></path><path d="M1567.17 544.07L1573.64 667.48" stroke="hsl(186.29999999999995, 89.3%, 57.4%)" stroke-width="1.5"></path><path d="M-61.94 510.04L-61.94 510.04" stroke="hsl(186.29999999999995, 89.3%, 57.4%)" stroke-width="1.5"></path><path d="M-61.94 510.04L46.39 544.76" stroke="hsl(186.29999999999995, 89.3%, 57.4%)" stroke-width="1.5"></path><path d="M-61.94 510.04L-71.94 675.67" stroke="hsl(186.29999999999995, 89.3%, 57.4%)" stroke-width="1.5"></path><path d="M-61.94 510.04L41.93 698.34" stroke="hsl(186.29999999999995, 89.3%, 57.4%)" stroke-width="1.5"></path><path d="M-61.94 510.04L191.3 511.53" stroke="hsl(186.29999999999995, 89.3%, 57.4%)" stroke-width="1.5"></path><path d="M-71.94 675.67L-71.94 675.67" stroke="hsl(186.29999999999995, 89.3%, 57.4%)" stroke-width="1.5"></path><path d="M-71.94 675.67L41.93 698.34" stroke="hsl(186.29999999999995, 89.3%, 57.4%)" stroke-width="1.5"></path><path d="M-71.94 675.67L46.39 544.76" stroke="hsl(186.29999999999995, 89.3%, 57.4%)" stroke-width="1.5"></path><path d="M-71.94 675.67L191.91 668.1" stroke="hsl(186.29999999999995, 89.3%, 57.4%)" stroke-width="1.5"></path><path d="M46.39 544.76L46.39 544.76" stroke="hsl(186.29999999999995, 89.3%, 57.4%)" stroke-width="1.5"></path><path d="M46.39 544.76L191.3 511.53" stroke="hsl(186.29999999999995, 89.3%, 57.4%)" stroke-width="1.5"></path><path d="M46.39 544.76L41.93 698.34" stroke="hsl(186.29999999999995, 89.3%, 57.4%)" stroke-width="1.5"></path><path d="M46.39 544.76L191.91 668.1" stroke="hsl(186.29999999999995, 89.3%, 57.4%)" stroke-width="1.5"></path><path d="M46.39 544.76L393.9 526.91" stroke="hsl(186.29999999999995, 89.3%, 57.4%)" stroke-width="1.5"></path><path d="M41.93 698.34L41.93 698.34" stroke="hsl(186.29999999999995, 89.3%, 57.4%)" stroke-width="1.5"></path><path d="M41.93 698.34L191.91 668.1" stroke="hsl(186.29999999999995, 89.3%, 57.4%)" stroke-width="1.5"></path><path d="M41.93 698.34L191.3 511.53" stroke="hsl(186.29999999999995, 89.3%, 57.4%)" stroke-width="1.5"></path><path d="M191.3 511.53L191.3 511.53" stroke="hsl(186.29999999999995, 89.3%, 57.4%)" stroke-width="1.5"></path><path d="M191.3 511.53L191.91 668.1" stroke="hsl(186.29999999999995, 89.3%, 57.4%)" stroke-width="1.5"></path><path d="M191.3 511.53L393.9 526.91" stroke="hsl(186.29999999999995, 89.3%, 57.4%)" stroke-width="1.5"></path><path d="M191.3 511.53L383.58 650.56" stroke="hsl(186.29999999999995, 89.3%, 57.4%)" stroke-width="1.5"></path><path d="M191.91 668.1L191.91 668.1" stroke="hsl(186.29999999999995, 89.3%, 57.4%)" stroke-width="1.5"></path><path d="M191.91 668.1L383.58 650.56" stroke="hsl(186.29999999999995, 89.3%, 57.4%)" stroke-width="1.5"></path><path d="M393.9 526.91L393.9 526.91" stroke="hsl(186.29999999999995, 89.3%, 57.4%)" stroke-width="1.5"></path><path d="M393.9 526.91L383.58 650.56" stroke="hsl(186.29999999999995, 89.3%, 57.4%)" stroke-width="1.5"></path><path d="M393.9 526.91L552.81 499.04" stroke="hsl(186.29999999999995, 89.3%, 57.4%)" stroke-width="1.5"></path><path d="M383.58 650.56L383.58 650.56" stroke="hsl(186.29999999999995, 89.3%, 57.4%)" stroke-width="1.5"></path><path d="M383.58 650.56L532.45 712.04" stroke="hsl(186.29999999999995, 89.3%, 57.4%)" stroke-width="1.5"></path><path d="M558.12 406.85L558.12 406.85" stroke="hsl(186.29999999999995, 89.3%, 57.4%)" stroke-width="1.5"></path><path d="M558.12 406.85L552.81 499.04" stroke="hsl(186.29999999999995, 89.3%, 57.4%)" stroke-width="1.5"></path><path d="M558.12 406.85L664.25 512.06" stroke="hsl(186.29999999999995, 89.3%, 57.4%)" stroke-width="1.5"></path><path d="M558.12 406.85L393.9 526.91" stroke="hsl(186.29999999999995, 89.3%, 57.4%)" stroke-width="1.5"></path><path d="M558.12 406.85L642.55 655.52" stroke="hsl(186.29999999999995, 89.3%, 57.4%)" stroke-width="1.5"></path><path d="M558.12 406.85L829 343.65" stroke="hsl(186.29999999999995, 89.3%, 57.4%)" stroke-width="1.5"></path><path d="M552.81 499.04L552.81 499.04" stroke="hsl(186.29999999999995, 89.3%, 57.4%)" stroke-width="1.5"></path><path d="M552.81 499.04L664.25 512.06" stroke="hsl(186.29999999999995, 89.3%, 57.4%)" stroke-width="1.5"></path><path d="M532.45 712.04L532.45 712.04" stroke="hsl(186.29999999999995, 89.3%, 57.4%)" stroke-width="1.5"></path><path d="M532.45 712.04L642.55 655.52" stroke="hsl(186.29999999999995, 89.3%, 57.4%)" stroke-width="1.5"></path><path d="M532.45 712.04L552.81 499.04" stroke="hsl(186.29999999999995, 89.3%, 57.4%)" stroke-width="1.5"></path><path d="M532.45 712.04L393.9 526.91" stroke="hsl(186.29999999999995, 89.3%, 57.4%)" stroke-width="1.5"></path><path d="M532.45 712.04L664.25 512.06" stroke="hsl(186.29999999999995, 89.3%, 57.4%)" stroke-width="1.5"></path><path d="M664.25 512.06L664.25 512.06" stroke="hsl(186.29999999999995, 89.3%, 57.4%)" stroke-width="1.5"></path><path d="M664.25 512.06L642.55 655.52" stroke="hsl(186.29999999999995, 89.3%, 57.4%)" stroke-width="1.5"></path><path d="M664.25 512.06L841.77 496.38" stroke="hsl(186.29999999999995, 89.3%, 57.4%)" stroke-width="1.5"></path><path d="M642.55 655.52L642.55 655.52" stroke="hsl(186.29999999999995, 89.3%, 57.4%)" stroke-width="1.5"></path><path d="M642.55 655.52L552.81 499.04" stroke="hsl(186.29999999999995, 89.3%, 57.4%)" stroke-width="1.5"></path><path d="M841.77 496.38L841.77 496.38" stroke="hsl(186.29999999999995, 89.3%, 57.4%)" stroke-width="1.5"></path><path d="M841.77 496.38L829 343.65" stroke="hsl(186.29999999999995, 89.3%, 57.4%)" stroke-width="1.5"></path><path d="M841.77 496.38L838.24 662.84" stroke="hsl(186.29999999999995, 89.3%, 57.4%)" stroke-width="1.5"></path><path d="M838.24 662.84L838.24 662.84" stroke="hsl(186.29999999999995, 89.3%, 57.4%)" stroke-width="1.5"></path><path d="M838.24 662.84L990.02 686.65" stroke="hsl(186.29999999999995, 89.3%, 57.4%)" stroke-width="1.5"></path><path d="M990.02 686.65L990.02 686.65" stroke="hsl(186.29999999999995, 89.3%, 57.4%)" stroke-width="1.5"></path><path d="M990.02 686.65L1090.79 550.11" stroke="hsl(186.29999999999995, 89.3%, 57.4%)" stroke-width="1.5"></path><path d="M990.02 686.65L841.77 496.38" stroke="hsl(186.29999999999995, 89.3%, 57.4%)" stroke-width="1.5"></path><path d="M990.02 686.65L1279.28 702.36" stroke="hsl(186.29999999999995, 89.3%, 57.4%)" stroke-width="1.5"></path><path d="M1155.69 240.01L1155.69 240.01" stroke="hsl(186.29999999999995, 89.3%, 57.4%)" stroke-width="1.5"></path><path d="M1155.69 240.01L1240.61 191.55" stroke="hsl(186.29999999999995, 89.3%, 57.4%)" stroke-width="1.5"></path><path d="M1155.69 240.01L1121.6 369.15" stroke="hsl(186.29999999999995, 89.3%, 57.4%)" stroke-width="1.5"></path><path d="M1121.6 369.15L1121.6 369.15" stroke="hsl(186.29999999999995, 89.3%, 57.4%)" stroke-width="1.5"></path><path d="M1121.6 369.15L1281.61 352.03" stroke="hsl(186.29999999999995, 89.3%, 57.4%)" stroke-width="1.5"></path><path d="M1121.6 369.15L1090.79 550.11" stroke="hsl(186.29999999999995, 89.3%, 57.4%)" stroke-width="1.5"></path><path d="M1121.6 369.15L978.18 505.03" stroke="hsl(186.29999999999995, 89.3%, 57.4%)" stroke-width="1.5"></path><path d="M1090.79 550.11L1090.79 550.11" stroke="hsl(186.29999999999995, 89.3%, 57.4%)" stroke-width="1.5"></path><path d="M1287.39 -93.5L1287.39 -93.5" stroke="hsl(186.29999999999995, 89.3%, 57.4%)" stroke-width="1.5"></path><path d="M1287.39 -93.5L1408.77 -82.71" stroke="hsl(186.29999999999995, 89.3%, 57.4%)" stroke-width="1.5"></path><path d="M1287.39 -93.5L1251.9 84.55" stroke="hsl(186.29999999999995, 89.3%, 57.4%)" stroke-width="1.5"></path><path d="M1251.9 84.55L1251.9 84.55" stroke="hsl(186.29999999999995, 89.3%, 57.4%)" stroke-width="1.5"></path><path d="M1251.9 84.55L1240.61 191.55" stroke="hsl(186.29999999999995, 89.3%, 57.4%)" stroke-width="1.5"></path><path d="M1251.9 84.55L1155.69 240.01" stroke="hsl(186.29999999999995, 89.3%, 57.4%)" stroke-width="1.5"></path><path d="M1251.9 84.55L1408.77 -82.71" stroke="hsl(186.29999999999995, 89.3%, 57.4%)" stroke-width="1.5"></path><path d="M1251.9 84.55L1421.47 242.29" stroke="hsl(186.29999999999995, 89.3%, 57.4%)" stroke-width="1.5"></path><path d="M1240.61 191.55L1240.61 191.55" stroke="hsl(186.29999999999995, 89.3%, 57.4%)" stroke-width="1.5"></path><path d="M1240.61 191.55L1281.61 352.03" stroke="hsl(186.29999999999995, 89.3%, 57.4%)" stroke-width="1.5"></path><path d="M1240.61 191.55L1421.47 242.29" stroke="hsl(186.29999999999995, 89.3%, 57.4%)" stroke-width="1.5"></path><path d="M1240.61 191.55L1121.6 369.15" stroke="hsl(186.29999999999995, 89.3%, 57.4%)" stroke-width="1.5"></path><path d="M1281.61 352.03L1281.61 352.03" stroke="hsl(186.29999999999995, 89.3%, 57.4%)" stroke-width="1.5"></path><path d="M1281.61 352.03L1417.12 372.25" stroke="hsl(186.29999999999995, 89.3%, 57.4%)" stroke-width="1.5"></path><path d="M1279.28 702.36L1279.28 702.36" stroke="hsl(186.29999999999995, 89.3%, 57.4%)" stroke-width="1.5"></path><path d="M1408.77 -82.71L1408.77 -82.71" stroke="hsl(186.29999999999995, 89.3%, 57.4%)" stroke-width="1.5"></path><path d="M1408.77 -82.71L1545.48 52.96" stroke="hsl(186.29999999999995, 89.3%, 57.4%)" stroke-width="1.5"></path><path d="M1408.77 -82.71L1542.94 205.44" stroke="hsl(186.29999999999995, 89.3%, 57.4%)" stroke-width="1.5"></path><path d="M1421.47 242.29L1421.47 242.29" stroke="hsl(186.29999999999995, 89.3%, 57.4%)" stroke-width="1.5"></path><path d="M1421.47 242.29L1542.94 205.44" stroke="hsl(186.29999999999995, 89.3%, 57.4%)" stroke-width="1.5"></path><path d="M1421.47 242.29L1417.12 372.25" stroke="hsl(186.29999999999995, 89.3%, 57.4%)" stroke-width="1.5"></path><path d="M1421.47 242.29L1281.61 352.03" stroke="hsl(186.29999999999995, 89.3%, 57.4%)" stroke-width="1.5"></path><path d="M1421.47 242.29L1559.23 386.86" stroke="hsl(186.29999999999995, 89.3%, 57.4%)" stroke-width="1.5"></path><path d="M1421.47 242.29L1545.48 52.96" stroke="hsl(186.29999999999995, 89.3%, 57.4%)" stroke-width="1.5"></path><path d="M1417.12 372.25L1417.12 372.25" stroke="hsl(186.29999999999995, 89.3%, 57.4%)" stroke-width="1.5"></path><path d="M1545.48 52.96L1545.48 52.96" stroke="hsl(186.29999999999995, 89.3%, 57.4%)" stroke-width="1.5"></path><path d="M1545.48 52.96L1542.94 205.44" stroke="hsl(186.29999999999995, 89.3%, 57.4%)" stroke-width="1.5"></path><path d="M1545.48 52.96L1251.9 84.55" stroke="hsl(186.29999999999995, 89.3%, 57.4%)" stroke-width="1.5"></path><path d="M1542.94 205.44L1542.94 205.44" stroke="hsl(186.29999999999995, 89.3%, 57.4%)" stroke-width="1.5"></path><path d="M1542.94 205.44L1559.23 386.86" stroke="hsl(186.29999999999995, 89.3%, 57.4%)" stroke-width="1.5"></path><path d="M1542.94 205.44L1417.12 372.25" stroke="hsl(186.29999999999995, 89.3%, 57.4%)" stroke-width="1.5"></path><path d="M1559.23 386.86L1559.23 386.86" stroke="hsl(186.29999999999995, 89.3%, 57.4%)" stroke-width="1.5"></path><path d="M1559.23 386.86L1417.12 372.25" stroke="hsl(186.29999999999995, 89.3%, 57.4%)" stroke-width="1.5"></path><path d="M1559.23 386.86L1567.17 544.07" stroke="hsl(186.29999999999995, 89.3%, 57.4%)" stroke-width="1.5"></path><path d="M1573.64 667.48L1573.64 667.48" stroke="hsl(186.29999999999995, 89.3%, 57.4%)" stroke-width="1.5"></path><path d="M1573.64 667.48L1397.36 638.17" stroke="hsl(186.29999999999995, 89.3%, 57.4%)" stroke-width="1.5"></path><path d="M1573.64 667.48L1418.43 496.34" stroke="hsl(186.29999999999995, 89.3%, 57.4%)" stroke-width="1.5"></path><path d="M1573.64 667.48L1559.23 386.86" stroke="hsl(186.29999999999995, 89.3%, 57.4%)" stroke-width="1.5"></path><path d="M1573.64 667.48L1279.28 702.36" stroke="hsl(186.29999999999995, 89.3%, 57.4%)" stroke-width="1.5"></path><circle r="25" cx="687.83" cy="387.97" fill="url(#SvgjsRadialGradient1011)"></circle><circle r="25" cx="829" cy="343.65" fill="url(#SvgjsRadialGradient1011)"></circle><circle r="25" cx="1001.99" cy="226.04" fill="url(#SvgjsRadialGradient1011)"></circle><circle r="25" cx="940.43" cy="383.29" fill="url(#SvgjsRadialGradient1011)"></circle><circle r="25" cx="978.18" cy="505.03" fill="url(#SvgjsRadialGradient1011)"></circle><circle r="25" cx="1143.66" cy="669.02" fill="url(#SvgjsRadialGradient1011)"></circle><circle r="25" cx="1242.83" cy="543.82" fill="url(#SvgjsRadialGradient1011)"></circle><circle r="25" cx="1418.43" cy="496.34" fill="url(#SvgjsRadialGradient1011)"></circle><circle r="25" cx="1397.36" cy="638.17" fill="url(#SvgjsRadialGradient1011)"></circle><circle r="25" cx="1541.7" cy="-84.51" fill="url(#SvgjsRadialGradient1011)"></circle><circle r="25" cx="1567.17" cy="544.07" fill="url(#SvgjsRadialGradient1011)"></circle><circle r="5" cx="-61.94" cy="510.04" fill="#86e0ea"></circle><circle r="5" cx="-71.94" cy="675.67" fill="#86e0ea"></circle><circle r="5" cx="46.39" cy="544.76" fill="#86e0ea"></circle><circle r="5" cx="41.93" cy="698.34" fill="#86e0ea"></circle><circle r="5" cx="191.3" cy="511.53" fill="#86e0ea"></circle><circle r="5" cx="191.91" cy="668.1" fill="#86e0ea"></circle><circle r="5" cx="393.9" cy="526.91" fill="#86e0ea"></circle><circle r="5" cx="383.58" cy="650.56" fill="#86e0ea"></circle><circle r="5" cx="558.12" cy="406.85" fill="#86e0ea"></circle><circle r="5" cx="552.81" cy="499.04" fill="#86e0ea"></circle><circle r="5" cx="532.45" cy="712.04" fill="#86e0ea"></circle><circle r="5" cx="664.25" cy="512.06" fill="#86e0ea"></circle><circle r="5" cx="642.55" cy="655.52" fill="#86e0ea"></circle><circle r="5" cx="841.77" cy="496.38" fill="#86e0ea"></circle><circle r="5" cx="838.24" cy="662.84" fill="#86e0ea"></circle><circle r="5" cx="990.02" cy="686.65" fill="#86e0ea"></circle><circle r="5" cx="1155.69" cy="240.01" fill="#86e0ea"></circle><circle r="5" cx="1121.6" cy="369.15" fill="#86e0ea"></circle><circle r="5" cx="1090.79" cy="550.11" fill="#86e0ea"></circle><circle r="5" cx="1287.39" cy="-93.5" fill="#86e0ea"></circle><circle r="5" cx="1251.9" cy="84.55" fill="#86e0ea"></circle><circle r="5" cx="1240.61" cy="191.55" fill="#86e0ea"></circle><circle r="5" cx="1281.61" cy="352.03" fill="#86e0ea"></circle><circle r="5" cx="1279.28" cy="702.36" fill="#86e0ea"></circle><circle r="5" cx="1408.77" cy="-82.71" fill="#86e0ea"></circle><circle r="5" cx="1421.47" cy="242.29" fill="#86e0ea"></circle><circle r="5" cx="1417.12" cy="372.25" fill="#86e0ea"></circle><circle r="5" cx="1545.48" cy="52.96" fill="#86e0ea"></circle><circle r="5" cx="1542.94" cy="205.44" fill="#86e0ea"></circle><circle r="5" cx="1559.23" cy="386.86" fill="#86e0ea"></circle><circle r="5" cx="1573.64" cy="667.48" fill="#86e0ea"></circle></g><defs><mask id="SvgjsMask1010"><rect width="1440" height="560" fill="#ffffff"></rect></mask><radialGradient id="SvgjsRadialGradient1011"><stop stop-color="#ffffff" offset="0.1"></stop><stop stop-color="rgba(12, 192, 213, 1)" offset="0.2"></stop><stop stop-color="rgba(12, 192, 213, 0)" offset="1"></stop></radialGradient></defs></svg>