<svg xmlns="http://www.w3.org/2000/svg" version="1.1" xmlns:xlink="http://www.w3.org/1999/xlink" xmlns:svgjs="http://svgjs.com/svgjs" width="1440" height="560" preserveAspectRatio="none" viewBox="0 0 1440 560"><g mask="url(&quot;#SvgjsMask1011&quot;)" fill="none"><path d="M723.62 442.93a14.74 14.74 0 1 0 25.66-14.51z" fill="rgba(48, 218, 8, 1)"></path><path d="M400.32 319.54L441.57 319.54L441.57 321.24L400.32 321.24z" fill="#e73635"></path><path d="M841.56 428.06L876.06 428.06L876.06 462.16L841.56 462.16z" stroke="rgba(48, 218, 8, 1)"></path><path d="M1003.62 269.15a36.54 36.54 0 1 0-70.32 19.89z" stroke="#e73635"></path><path d="M1077.35 125.28L1132.52 125.28L1132.52 180.45L1077.35 180.45z" fill="#e73635"></path><path d="M745.92 463.37L750.52 463.37L750.52 467.97L745.92 467.97z" fill="rgba(48, 218, 8, 1)"></path><path d="M908.21 405.23L915.91 405.23L915.91 412.93L908.21 412.93z" stroke="rgba(48, 218, 8, 1)"></path><path d="M1062.4 466.25L1088.21 466.25L1088.21 470.19L1062.4 470.19z" fill="rgba(48, 218, 8, 1)"></path><path d="M927.58 527.01L952.33 527.01L952.33 551.76L927.58 551.76z" stroke="rgba(48, 218, 8, 1)"></path><path d="M734.89 34.36L788.97 34.36L788.97 40.69L734.89 40.69z" fill="#e73635"></path><path d="M910.54 257.13L962.45 257.13L962.45 309.08L910.54 309.08z" stroke="rgba(48, 218, 8, 1)"></path><path d="M595.53 317.14L612.46 317.14L612.46 334.07L595.53 334.07z" stroke="rgba(48, 218, 8, 1)"></path><path d="M1126.39 287.1 a31.11 31.11 0 1 0 62.22 0 a31.11 31.11 0 1 0 -62.22 0z" fill="rgba(48, 218, 8, 1)"></path><path d="M452.07 152.21L490.82 152.21L490.82 187.09L452.07 187.09z" stroke="#d3b714"></path><path d="M1059.7 87.49L1092.47 87.49L1092.47 120.26L1059.7 120.26z" fill="#e73635"></path><path d="M584.65 248.1L613.11 248.1L613.11 276.56L584.65 276.56z" fill="rgba(48, 218, 8, 1)"></path><path d="M58.94 128.01 a37.43 37.43 0 1 0 74.86 0 a37.43 37.43 0 1 0 -74.86 0z" stroke="#e73635"></path><path d="M1275.17 408.36a6.56 6.56 0 1 0-10.8 7.44z" stroke="rgba(48, 218, 8, 1)"></path><path d="M279.87 243.5 a49.12 49.12 0 1 0 98.24 0 a49.12 49.12 0 1 0 -98.24 0z" stroke="#d3b714"></path><path d="M248.11 506.72 a54.34 54.34 0 1 0 108.68 0 a54.34 54.34 0 1 0 -108.68 0z" stroke="rgba(48, 218, 8, 1)"></path><path d="M1239.09 190.03a54.88 54.88 0 1 0-64.99 88.44z" stroke="rgba(48, 218, 8, 1)"></path><path d="M66.3 471.35a20.68 20.68 0 1 0-9.51 40.26z" stroke="rgba(48, 218, 8, 1)"></path><path d="M711.64 136.63a13.06 13.06 0 1 0 25.92 3.18z" stroke="#d3b714"></path><path d="M727.99 25.18L730.93 25.18L730.93 53.44L727.99 53.44z" stroke="#d3b714"></path><path d="M1140.15 325.84a5.78 5.78 0 1 0 3-11.16z" stroke="#e73635"></path><path d="M1074.05 253.72L1076.68 253.72L1076.68 256.35L1074.05 256.35z" stroke="#e73635"></path><path d="M1182.03 208.11L1232.43 208.11L1232.43 263.14L1182.03 263.14z" stroke="#e73635"></path><path d="M150.7 2.45 a42 42 0 1 0 84 0 a42 42 0 1 0 -84 0z" fill="rgba(48, 218, 8, 1)"></path><path d="M510.75 223.2L534.98 223.2L534.98 256.92L510.75 256.92z" stroke="rgba(48, 218, 8, 1)"></path><path d="M1186.44 290.22L1226.48 290.22L1226.48 330.26L1186.44 330.26z" stroke="#e73635"></path><path d="M514.61 400.04L531.89 400.04L531.89 404.52L514.61 404.52z" stroke="#e73635"></path><path d="M701.84 152.83L739.95 152.83L739.95 190.94L701.84 190.94z" stroke="#e73635"></path><path d="M1129.25 415.77L1136.74 415.77L1136.74 423.26L1129.25 423.26z" fill="rgba(48, 218, 8, 1)"></path></g><defs><mask id="SvgjsMask1011"><rect width="1440" height="560" fill="#ffffff"></rect></mask></defs></svg>